<svg xmlns="http://www.w3.org/2000/svg" xmlns:xlink="http://www.w3.org/1999/xlink" width="512" height="512" viewBox="0 0 512 512"><defs><style>.a{clip-path:url(#c);}.b{fill:url(#a);}.c{fill:#fff;}</style><linearGradient id="a" x1="0.5" x2="0.5" y2="1" gradientUnits="objectBoundingBox"><stop offset="0" stop-color="#4c33f9"/><stop offset="1" stop-color="#951350"/></linearGradient><clipPath id="c"><rect width="512" height="512"/></clipPath></defs><g id="b" class="a"><rect class="c" width="512" height="512"/><path class="b" d="M86,385a16,16,0,1,1,16,16A16,16,0,0,1,86,385Zm-52-2a14,14,0,1,1,14,14A14,14,0,0,1,34,383Zm-52-2A12,12,0,0,1-6,369,12,12,0,0,1,6,381,12,12,0,0,1-6,393,12,12,0,0,1-18,381Zm-52-2a10,10,0,0,1,10-10,10,10,0,0,1,10,10,10,10,0,0,1-10,10A10,10,0,0,1-70,379Zm-52-2a8,8,0,0,1,8-8,8,8,0,0,1,8,8,8,8,0,0,1-8,8A8,8,0,0,1-122,377Zm-52-4a4,4,0,0,1,4-4,4,4,0,0,1,4,4,4,4,0,0,1-4,4A4,4,0,0,1-174,373ZM34,333a16,16,0,1,1,16,16A16,16,0,0,1,34,333Zm52-2a14,14,0,1,1,14,14A14,14,0,0,1,86,331Zm-104,0A14,14,0,0,1-4,317a14,14,0,0,1,14,14A14,14,0,0,1-4,345,14,14,0,0,1-18,331Zm-52-2a12,12,0,0,1,12-12,12,12,0,0,1,12,12,12,12,0,0,1-12,12A12,12,0,0,1-70,329Zm-52-2a10,10,0,0,1,10-10,10,10,0,0,1,10,10,10,10,0,0,1-10,10A10,10,0,0,1-122,327Zm-52-2a8,8,0,0,1,8-8,8,8,0,0,1,8,8,8,8,0,0,1-8,8A8,8,0,0,1-174,325Zm-52-4a4,4,0,0,1,4-4,4,4,0,0,1,4,4,4,4,0,0,1-4,4A4,4,0,0,1-226,321Zm208-40A16,16,0,0,1-2,265a16,16,0,0,1,16,16A16,16,0,0,1-2,297,16,16,0,0,1-18,281Zm52-2a14,14,0,1,1,14,14A14,14,0,0,1,34,279Zm-104,0a14,14,0,0,1,14-14,14,14,0,0,1,14,14,14,14,0,0,1-14,14A14,14,0,0,1-70,279Zm156-2a12,12,0,1,1,12,12A12,12,0,0,1,86,277Zm-208,0a12,12,0,0,1,12-12,12,12,0,0,1,12,12,12,12,0,0,1-12,12A12,12,0,0,1-122,277Zm-52-2a10,10,0,0,1,10-10,10,10,0,0,1,10,10,10,10,0,0,1-10,10A10,10,0,0,1-174,275Zm-52-2a8,8,0,0,1,8-8,8,8,0,0,1,8,8,8,8,0,0,1-8,8A8,8,0,0,1-226,273Zm-52-4a4,4,0,0,1,4-4,4,4,0,0,1,4,4,4,4,0,0,1-4,4A4,4,0,0,1-278,269Zm208-40a16,16,0,0,1,16-16,16,16,0,0,1,16,16,16,16,0,0,1-16,16A16,16,0,0,1-70,229Zm52-2A14,14,0,0,1-4,213a14,14,0,0,1,14,14A14,14,0,0,1-4,241,14,14,0,0,1-18,227Zm-104,0a14,14,0,0,1,14-14,14,14,0,0,1,14,14,14,14,0,0,1-14,14A14,14,0,0,1-122,227Zm156-2a12,12,0,1,1,12,12A12,12,0,0,1,34,225Zm-208,0a12,12,0,0,1,12-12,12,12,0,0,1,12,12,12,12,0,0,1-12,12A12,12,0,0,1-174,225Zm260-2a10,10,0,1,1,10,10A10,10,0,0,1,86,223Zm-312,0a10,10,0,0,1,10-10,10,10,0,0,1,10,10,10,10,0,0,1-10,10A10,10,0,0,1-226,223Zm-52-2a8,8,0,0,1,8-8,8,8,0,0,1,8,8,8,8,0,0,1-8,8A8,8,0,0,1-278,221Zm-52-4a4,4,0,0,1,4-4,4,4,0,0,1,4,4,4,4,0,0,1-4,4A4,4,0,0,1-330,217Zm208-40a16,16,0,0,1,16-16,16,16,0,0,1,16,16,16,16,0,0,1-16,16A16,16,0,0,1-122,177Zm52-2a14,14,0,0,1,14-14,14,14,0,0,1,14,14,14,14,0,0,1-14,14A14,14,0,0,1-70,175Zm-104,0a14,14,0,0,1,14-14,14,14,0,0,1,14,14,14,14,0,0,1-14,14A14,14,0,0,1-174,175Zm156-2A12,12,0,0,1-6,161,12,12,0,0,1,6,173,12,12,0,0,1-6,185,12,12,0,0,1-18,173Zm-208,0a12,12,0,0,1,12-12,12,12,0,0,1,12,12,12,12,0,0,1-12,12A12,12,0,0,1-226,173Zm260-2a10,10,0,1,1,10,10A10,10,0,0,1,34,171Zm-312,0a10,10,0,0,1,10-10,10,10,0,0,1,10,10,10,10,0,0,1-10,10A10,10,0,0,1-278,171Zm364-2a8,8,0,1,1,8,8A8,8,0,0,1,86,169Zm-416,0a8,8,0,0,1,8-8,8,8,0,0,1,8,8,8,8,0,0,1-8,8A8,8,0,0,1-330,169Zm156-44a16,16,0,0,1,16-16,16,16,0,0,1,16,16,16,16,0,0,1-16,16A16,16,0,0,1-174,125Zm52-2a14,14,0,0,1,14-14,14,14,0,0,1,14,14,14,14,0,0,1-14,14A14,14,0,0,1-122,123Zm-104,0a14,14,0,0,1,14-14,14,14,0,0,1,14,14,14,14,0,0,1-14,14A14,14,0,0,1-226,123Zm156-2a12,12,0,0,1,12-12,12,12,0,0,1,12,12,12,12,0,0,1-12,12A12,12,0,0,1-70,121Zm-208,0a12,12,0,0,1,12-12,12,12,0,0,1,12,12,12,12,0,0,1-12,12A12,12,0,0,1-278,121Zm260-2A10,10,0,0,1-8,109,10,10,0,0,1,2,119,10,10,0,0,1-8,129,10,10,0,0,1-18,119Zm-312,0a10,10,0,0,1,10-10,10,10,0,0,1,10,10,10,10,0,0,1-10,10A10,10,0,0,1-330,119Zm364-2a8,8,0,1,1,8,8A8,8,0,0,1,34,117Zm52-4a4,4,0,1,1,4,4A4,4,0,0,1,86,113ZM-226,73a16,16,0,0,1,16-16,16,16,0,0,1,16,16,16,16,0,0,1-16,16A16,16,0,0,1-226,73Zm52-2a14,14,0,0,1,14-14,14,14,0,0,1,14,14,14,14,0,0,1-14,14A14,14,0,0,1-174,71Zm-104,0a14,14,0,0,1,14-14,14,14,0,0,1,14,14,14,14,0,0,1-14,14A14,14,0,0,1-278,71Zm156-2a12,12,0,0,1,12-12A12,12,0,0,1-98,69a12,12,0,0,1-12,12A12,12,0,0,1-122,69Zm-208,0a12,12,0,0,1,12-12,12,12,0,0,1,12,12,12,12,0,0,1-12,12A12,12,0,0,1-330,69Zm260-2A10,10,0,0,1-60,57,10,10,0,0,1-50,67,10,10,0,0,1-60,77,10,10,0,0,1-70,67Zm52-2a8,8,0,0,1,8-8,8,8,0,0,1,8,8,8,8,0,0,1-8,8A8,8,0,0,1-18,65Zm52-4a4,4,0,1,1,4,4A4,4,0,0,1,34,61ZM-278,21A16,16,0,0,1-262,5a16,16,0,0,1,16,16,16,16,0,0,1-16,16A16,16,0,0,1-278,21Zm52-2A14,14,0,0,1-212,5a14,14,0,0,1,14,14,14,14,0,0,1-14,14A14,14,0,0,1-226,19Zm-104,0A14,14,0,0,1-316,5a14,14,0,0,1,14,14,14,14,0,0,1-14,14A14,14,0,0,1-330,19Zm156-2A12,12,0,0,1-162,5a12,12,0,0,1,12,12,12,12,0,0,1-12,12A12,12,0,0,1-174,17Zm52-2A10,10,0,0,1-112,5a10,10,0,0,1,10,10,10,10,0,0,1-10,10A10,10,0,0,1-122,15Zm52-2a8,8,0,0,1,8-8,8,8,0,0,1,8,8,8,8,0,0,1-8,8A8,8,0,0,1-70,13Zm52-4a4,4,0,0,1,4-4,4,4,0,0,1,4,4,4,4,0,0,1-4,4A4,4,0,0,1-18,9ZM-330-31a16,16,0,0,1,16-16,16,16,0,0,1,16,16,16,16,0,0,1-16,16A16,16,0,0,1-330-31Zm52-2a14,14,0,0,1,14-14,14,14,0,0,1,14,14,14,14,0,0,1-14,14A14,14,0,0,1-278-33Zm52-2a12,12,0,0,1,12-12,12,12,0,0,1,12,12,12,12,0,0,1-12,12A12,12,0,0,1-226-35Zm52-2a10,10,0,0,1,10-10,10,10,0,0,1,10,10,10,10,0,0,1-10,10A10,10,0,0,1-174-37Zm52-2a8,8,0,0,1,8-8,8,8,0,0,1,8,8,8,8,0,0,1-8,8A8,8,0,0,1-122-39Zm52-4a4,4,0,0,1,4-4,4,4,0,0,1,4,4,4,4,0,0,1-4,4A4,4,0,0,1-70-43Z" transform="translate(362 79)"/></g></svg>