<svg width="681" height="528" viewBox="0 0 681 528" fill="none" xmlns="http://www.w3.org/2000/svg">
<mask id="mask0_0_37" style="mask-type:alpha" maskUnits="userSpaceOnUse" x="0" y="0" width="681" height="528">
<path fill-rule="evenodd" clip-rule="evenodd" d="M0.99744 527.91V0.99604H680.885V527.91H0.99744Z" fill="white"/>
</mask>
<g mask="url(#mask0_0_37)">
<mask id="mask1_0_37" style="mask-type:alpha" maskUnits="userSpaceOnUse" x="0" y="0" width="681" height="528">
<path fill-rule="evenodd" clip-rule="evenodd" d="M0.99744 527.91V0.99604H680.885V527.91H0.99744Z" fill="white"/>
</mask>
<g mask="url(#mask1_0_37)">
<g opacity="0.75">
<mask id="mask2_0_37" style="mask-type:alpha" maskUnits="userSpaceOnUse" x="55" y="0" width="556" height="516">
<path fill-rule="evenodd" clip-rule="evenodd" d="M55.1996 515.548V0.99604H610.433V515.548H55.1996Z" fill="white"/>
</mask>
<g mask="url(#mask2_0_37)">
<mask id="mask3_0_37" style="mask-type:alpha" maskUnits="userSpaceOnUse" x="55" y="0" width="556" height="516">
<path fill-rule="evenodd" clip-rule="evenodd" d="M173.009 515.548H492.624C563.86 466.442 610.433 385.459 610.433 293.796C610.433 143.977 486.14 0.99605 332.817 0.99605C179.493 0.99605 55.1994 143.977 55.1994 293.796C55.1994 385.459 101.773 466.442 173.009 515.548Z" fill="white"/>
</mask>
<g mask="url(#mask3_0_37)">
<path fill-rule="evenodd" clip-rule="evenodd" d="M55.1994 515.548V0.99604H610.433V515.548H55.1994Z" fill="url(#paint0_linear_0_37)"/>
</g>
</g>
</g>
<g opacity="0.43">
<mask id="mask4_0_37" style="mask-type:alpha" maskUnits="userSpaceOnUse" x="40" y="504" width="586" height="24">
<path fill-rule="evenodd" clip-rule="evenodd" d="M40.2359 527.91V504.842H625.398V527.91H40.2359Z" fill="white"/>
</mask>
<g mask="url(#mask4_0_37)">
<path fill-rule="evenodd" clip-rule="evenodd" d="M625.398 516.372C625.398 510 494.406 504.834 332.818 504.834C171.23 504.834 40.2376 510 40.2376 516.372C40.2376 522.744 171.23 527.91 332.818 527.91C494.406 527.91 625.398 522.744 625.398 516.372Z" fill="#CEE5ED"/>
</g>
</g>
</g>
<path fill-rule="evenodd" clip-rule="evenodd" d="M224.033 504.896V377.612H237.343V504.896H224.033Z" fill="#00CFFF"/>
<path fill-rule="evenodd" clip-rule="evenodd" d="M224.033 395.502V377.604H237.343V395.502H224.033Z" fill="#00CFFF"/>
<mask id="mask5_0_37" style="mask-type:alpha" maskUnits="userSpaceOnUse" x="0" y="0" width="681" height="528">
<path fill-rule="evenodd" clip-rule="evenodd" d="M0.99744 527.91V0.99604H680.885V527.91H0.99744Z" fill="white"/>
</mask>
<g mask="url(#mask5_0_37)">
<path fill-rule="evenodd" clip-rule="evenodd" d="M288.582 504.934H176.991C172.732 504.934 169.279 508.387 169.279 512.647V516.616H296.293V512.647C296.293 508.387 292.841 504.934 288.582 504.934" fill="#00CFFF"/>
<path fill-rule="evenodd" clip-rule="evenodd" d="M199.136 377.736H291.373C257.811 365.683 270.794 252.132 276.999 209.087C278.249 200.414 271.511 192.656 262.748 192.656H201.311C188.736 192.656 178.083 201.922 176.366 214.38C170.975 253.489 162.479 334.587 179.307 365.983C183.209 373.265 190.874 377.736 199.136 377.736" fill="#00CFFF"/>
<path fill-rule="evenodd" clip-rule="evenodd" d="M516.217 121.698H405.875C400.217 121.698 395.631 126.284 395.631 131.942V181.658C395.631 187.316 400.217 191.902 405.875 191.902H413.58V203.925C413.58 205.594 415.558 206.474 416.798 205.356L431.718 191.902H516.217C521.875 191.902 526.461 187.316 526.461 181.658V131.942C526.461 126.284 521.875 121.698 516.217 121.698Z" fill="#00CFFF"/>
<path fill-rule="evenodd" clip-rule="evenodd" d="M438.729 157.556C438.729 160.049 436.709 162.068 434.217 162.068C431.724 162.068 429.703 160.049 429.703 157.556C429.703 155.063 431.724 153.044 434.217 153.044C436.709 153.044 438.729 155.063 438.729 157.556Z" fill="#34648C"/>
<path fill-rule="evenodd" clip-rule="evenodd" d="M466.485 157.556C466.485 160.049 464.465 162.068 461.973 162.068C459.48 162.068 457.459 160.049 457.459 157.556C457.459 155.063 459.48 153.044 461.973 153.044C464.465 153.044 466.485 155.063 466.485 157.556Z" fill="#34648C"/>
<path fill-rule="evenodd" clip-rule="evenodd" d="M492.388 157.556C492.388 160.049 490.367 162.068 487.875 162.068C485.382 162.068 483.362 160.049 483.362 157.556C483.362 155.063 485.382 153.044 487.875 153.044C490.367 153.044 492.388 155.063 492.388 157.556Z" fill="#34648C"/>
<path fill-rule="evenodd" clip-rule="evenodd" d="M312.052 486.11L310.749 495.106L317.597 503.866L334.966 495.366L336.847 487.138L315.227 483.872L312.052 486.11Z" fill="#F2BF75"/>
<path fill-rule="evenodd" clip-rule="evenodd" d="M326.074 515.068L327.867 512.849C328.195 512.441 328.814 512.433 329.153 512.832L330.953 514.942C331.682 515.796 332.755 516.28 333.877 516.26L374.233 515.573C375.003 514.786 375.205 513.434 374.302 512.524C368.388 506.557 336.554 496.24 334.971 495.37C333.385 494.501 323.649 502.063 310.751 495.11C310.751 495.11 308.66 505.209 308.358 511.752C308.236 514.426 310.345 516.661 313.019 516.615L323.26 516.441C324.355 516.422 325.385 515.92 326.074 515.068" fill="#1E394C"/>
<path fill-rule="evenodd" clip-rule="evenodd" d="M237.997 334.019C237.997 334.019 221.242 352.541 251.924 372.671C273.449 386.794 290.413 382.479 303.923 391.04C307.092 393.047 309.5 396.034 309.723 399.779L310.409 486.374L312.042 487.185C320.172 491.221 329.7 491.325 337.916 487.467L350.135 388.664C350.573 381.854 346.893 376.111 342.675 370.746C319.215 340.9 277.673 330.788 267.159 329.063C253.489 326.821 237.997 334.019 237.997 334.019" fill="#1E394C"/>
<path fill-rule="evenodd" clip-rule="evenodd" d="M245.321 486.095L243.895 495.077L250.624 503.935L268.112 495.669L270.107 487.463L248.528 483.899L245.321 486.095Z" fill="#F2BF75"/>
<path fill-rule="evenodd" clip-rule="evenodd" d="M258.944 515.247L260.767 513.051C261.102 512.649 261.72 512.649 262.054 513.052L263.826 515.188C264.542 516.051 265.607 516.55 266.73 516.546L307.091 516.411C307.871 515.634 308.092 514.285 307.202 513.361C301.37 507.312 269.681 496.556 268.109 495.665C266.536 494.774 256.698 502.204 243.897 495.074C243.897 495.074 241.669 505.147 241.277 511.688C241.117 514.36 243.194 516.625 245.871 516.616L256.113 516.581C257.208 516.578 258.244 516.089 258.944 515.247" fill="#1E394C"/>
<path fill-rule="evenodd" clip-rule="evenodd" d="M187.052 317.866C187.052 317.866 166.749 340.495 196.106 366.054C216.702 383.986 235.184 376.318 248.154 387.254C251.196 389.819 253.298 393.303 252.996 397.271L243.725 485.356L244.423 485.809C252.52 491.065 262.758 491.763 271.494 487.655L294.449 394.835C295.886 387.74 292.843 381.177 289.181 374.933C268.808 340.201 236.821 319.499 226.017 316.177C211.973 311.858 187.052 317.866 187.052 317.866Z" fill="#1E394C"/>
<path fill-rule="evenodd" clip-rule="evenodd" d="M299.07 388.558C297.526 387.901 295.95 387.376 294.34 386.916C293.486 382.778 291.449 378.77 289.183 374.927C279.099 357.716 266.125 343.92 254.299 334.033C261.657 332.785 265.402 331.209 267.439 329.14C271.478 329.797 279.625 331.636 289.479 335.117C299.464 351.804 299.431 378.901 299.07 388.558" fill="#0F2A3F"/>
<path fill-rule="evenodd" clip-rule="evenodd" d="M241.724 198.114C241.724 198.114 212.441 194.21 200.271 217.026C188.102 239.844 169.929 329.29 185.82 332.01C192.856 333.214 211.617 337.936 232.407 336.415C260.99 334.324 267.204 331.693 269.264 326.257L287.474 242.902C287.9 231.434 282.797 220.404 273.651 213.472C259.059 202.414 241.724 198.114 241.724 198.114Z" fill="#CEE5ED"/>
<path fill-rule="evenodd" clip-rule="evenodd" d="M287.359 235.566C287.359 235.566 287.739 285.769 303.521 288.811C319.302 291.853 361.324 290.902 361.324 290.902V306.876H271.198L287.359 235.566Z" fill="#AAC6CE"/>
<path fill-rule="evenodd" clip-rule="evenodd" d="M265.536 212.798L269.087 195.043L246.059 177.504L241.647 198.433C241.647 198.433 248.911 230.391 265.536 212.798" fill="#EA9249"/>
<path fill-rule="evenodd" clip-rule="evenodd" d="M294.907 161.205C294.907 161.205 282.86 167.066 265.21 156.311C265.21 156.311 261.116 163.67 249.289 170.243C249.289 170.243 243.144 159.94 239.606 167.66C238.534 169.998 238.031 172.102 237.979 173.962C226.901 159.655 234.713 140.803 245.042 130.642C254.829 120.996 276.017 124.831 289.251 130.151C303.299 135.807 305.882 125.967 305.882 125.967C323.635 150.978 294.907 161.205 294.907 161.205" fill="#1E394C"/>
<path fill-rule="evenodd" clip-rule="evenodd" d="M249.286 170.24C249.286 170.24 243.139 159.938 239.6 167.657C235.309 177.022 240.152 182.896 245.964 182.896C245.964 182.896 250.577 207.253 272.96 205.531C295.343 203.81 298.571 167.873 294.913 161.202C294.913 161.202 282.861 167.066 265.213 156.306C265.213 156.306 261.124 163.676 249.286 170.24Z" fill="#F2BF75"/>
<path fill-rule="evenodd" clip-rule="evenodd" d="M443.281 227.216H349.858C345.254 227.216 341.285 230.458 340.365 234.968L327.927 295.932H441.128L452.774 238.843C453.999 232.837 449.41 227.216 443.281 227.216" fill="#CEE5ED"/>
<path fill-rule="evenodd" clip-rule="evenodd" d="M440.763 295.936H286.366C283.819 295.936 281.755 298 281.755 300.546V302.039C281.755 304.584 283.819 306.648 286.366 306.648H440.763C443.31 306.648 445.375 304.584 445.375 302.039V300.546C445.375 298 443.31 295.936 440.763 295.936Z" fill="#80A9B2"/>
<path fill-rule="evenodd" clip-rule="evenodd" d="M440.764 295.936H326.691C329.237 295.936 331.302 298 331.302 300.546V302.039C331.302 304.585 329.237 306.648 326.691 306.648H440.764C443.311 306.648 445.375 304.585 445.375 302.039V300.546C445.375 298 443.311 295.936 440.764 295.936Z" fill="#AAC6CE"/>
<path fill-rule="evenodd" clip-rule="evenodd" d="M291.345 292.669C273.158 290.551 222.135 285.345 213.392 284.44C202.363 283.298 226.321 238.803 228.983 223.591C231.643 208.38 220.046 207.809 220.046 207.809C213.5 206.991 206.356 207.809 200.273 217.024C187.819 235.885 173.948 291.021 181.259 304.633C182.117 306.231 183.796 307.21 185.609 307.21H291.345V292.669Z" fill="#CEE5ED"/>
<path fill-rule="evenodd" clip-rule="evenodd" d="M291.345 292.67C291.345 292.67 225.652 288.148 211.486 286.247C200.498 284.772 223.402 239.187 226.064 223.975C228.726 208.765 216.937 209.399 216.937 209.399C213.986 209.034 209.722 209.449 206.679 210.362C211.075 207.472 215.684 207.274 220.05 207.807C220.05 207.807 231.641 208.385 228.98 223.595C226.318 238.807 205.782 282.349 212.722 284.06C221.259 286.165 273.153 290.556 291.345 292.67" fill="#AAC6CE"/>
<path fill-rule="evenodd" clip-rule="evenodd" d="M291.345 307.446H315.857C317.699 307.446 318.805 305.411 317.801 303.867C315.506 300.34 311.88 295.358 309.224 294.513C307.639 294.009 295.72 294.454 291.345 294.917L291.345 307.446Z" fill="#F2BF75"/>
<g opacity="0.67">
<mask id="mask6_0_37" style="mask-type:alpha" maskUnits="userSpaceOnUse" x="262" y="161" width="35" height="45">
<path fill-rule="evenodd" clip-rule="evenodd" d="M262.693 205.614V161.198H296.197V205.614H262.693Z" fill="white"/>
</mask>
<g mask="url(#mask6_0_37)">
<path fill-rule="evenodd" clip-rule="evenodd" d="M294.911 161.198C294.911 161.198 292.9 162.154 289.362 162.583C289.065 164.241 288.53 167.43 288.243 170.452C287.832 174.763 289.987 188.109 288.653 188.211C287.319 188.314 284.548 188.109 284.548 188.109C284.548 188.109 282.496 207.408 263.201 204.327C263.019 204.298 262.874 204.279 262.701 204.252C265.622 205.303 269.001 205.844 272.962 205.539C295.341 203.817 298.569 167.871 294.911 161.198" fill="#EA9249"/>
</g>
</g>
<path fill-rule="evenodd" clip-rule="evenodd" d="M507.663 307.256H105.134C100.616 307.256 96.9535 310.918 96.9535 315.435V318.086C96.9535 322.603 100.616 326.266 105.134 326.266H507.663C512.181 326.266 515.844 322.603 515.844 318.086V315.435C515.844 310.918 512.181 307.256 507.663 307.256Z" fill="#3E8CCC"/>
<path fill-rule="evenodd" clip-rule="evenodd" d="M507.663 307.256H105.134C100.616 307.256 96.9535 310.919 96.9535 315.437V318.089C96.9535 318.959 97.1255 319.78 97.3764 320.566C98.4304 317.267 101.485 314.862 105.134 314.862H507.663C511.312 314.862 514.366 317.267 515.42 320.566C515.672 319.78 515.844 318.959 515.844 318.089V315.437C515.844 310.919 512.181 307.256 507.663 307.256Z" fill="#2173AA"/>
<path fill-rule="evenodd" clip-rule="evenodd" d="M232.363 515.935H218.909L125.311 326.365H138.765L232.363 515.935Z" fill="#34648C"/>
<path fill-rule="evenodd" clip-rule="evenodd" d="M84.2384 515.935H97.6925L191.29 326.365H177.836L84.2384 515.935Z" fill="#34648C"/>
<path fill-rule="evenodd" clip-rule="evenodd" d="M522.145 515.935H508.691L415.095 326.365H428.548L522.145 515.935Z" fill="#34648C"/>
<path fill-rule="evenodd" clip-rule="evenodd" d="M374.022 515.935H387.475L481.072 326.365H467.619L374.022 515.935Z" fill="#34648C"/>
<path fill-rule="evenodd" clip-rule="evenodd" d="M142.475 333.877L138.767 326.365H125.311L129.02 333.877H142.475Z" fill="#1A3651"/>
<path fill-rule="evenodd" clip-rule="evenodd" d="M187.581 333.877L191.289 326.365H177.835L174.127 333.877H187.581Z" fill="#1A3651"/>
<path fill-rule="evenodd" clip-rule="evenodd" d="M432.258 333.877L428.55 326.365H415.094L418.803 333.877H432.258Z" fill="#1A3651"/>
<path fill-rule="evenodd" clip-rule="evenodd" d="M477.364 333.877L481.073 326.365H467.617L463.909 333.877H477.364Z" fill="#1A3651"/>
<path fill-rule="evenodd" clip-rule="evenodd" d="M660.033 371.473C670.389 360.502 672.95 346.105 665.754 339.314C658.558 332.523 644.329 335.91 633.973 346.88C623.617 357.85 616.243 377.347 623.439 384.138C630.635 390.928 649.677 382.442 660.033 371.473Z" fill="#34648C"/>
<g opacity="0.26">
<mask id="mask7_0_37" style="mask-type:alpha" maskUnits="userSpaceOnUse" x="623" y="335" width="47" height="52">
<path fill-rule="evenodd" clip-rule="evenodd" d="M623.255 386.566V335.854H669.838V386.566H623.255Z" fill="white"/>
</mask>
<g mask="url(#mask7_0_37)">
<path fill-rule="evenodd" clip-rule="evenodd" d="M665.754 339.31C663.521 337.202 660.609 336.079 657.348 335.854C657.691 336.114 658.037 336.368 658.354 336.667C665.55 343.459 662.989 357.857 652.633 368.829C644.841 377.082 632.137 383.925 623.255 383.918C623.322 383.986 623.368 384.072 623.438 384.137C630.635 390.929 649.676 382.443 660.033 371.471C670.389 360.5 672.95 346.101 665.754 339.31" fill="#0F2A3F"/>
</g>
</g>
<path fill-rule="evenodd" clip-rule="evenodd" d="M607.385 329.233C608.77 314.433 602.49 301.743 593.359 300.889C584.229 300.034 575.705 311.339 574.321 326.139C572.936 340.94 578.572 360.509 587.703 361.363C596.833 362.218 606 344.033 607.385 329.233" fill="#67B8EF"/>
<g opacity="0.25">
<mask id="mask8_0_37" style="mask-type:alpha" maskUnits="userSpaceOnUse" x="584" y="300" width="24" height="62">
<path fill-rule="evenodd" clip-rule="evenodd" d="M584.427 361.392V300.844H607.577V361.392H584.427Z" fill="white"/>
</mask>
<g mask="url(#mask8_0_37)">
<path fill-rule="evenodd" clip-rule="evenodd" d="M593.359 300.889C591.655 300.73 589.973 300.995 588.354 301.626C595.846 304.627 600.67 316.088 599.44 329.234C598.293 341.489 591.807 356.031 584.427 360.196C585.458 360.85 586.552 361.257 587.701 361.365C596.833 362.219 606.002 344.035 607.387 329.234C608.771 314.434 602.49 301.743 593.359 300.889" fill="#34648C"/>
</g>
</g>
<path fill-rule="evenodd" clip-rule="evenodd" d="M562.94 317.869C556.608 305.404 545.241 298.465 537.55 302.372C529.859 306.279 528.758 319.551 535.09 332.016C541.422 344.481 555.733 357.212 563.423 353.306C571.113 349.399 569.271 330.334 562.94 317.869" fill="#34648C"/>
<g opacity="0.26">
<mask id="mask9_0_37" style="mask-type:alpha" maskUnits="userSpaceOnUse" x="531" y="301" width="38" height="52">
<path fill-rule="evenodd" clip-rule="evenodd" d="M531.665 352.666V301.282H568.457V352.666H531.665Z" fill="white"/>
</mask>
<g mask="url(#mask9_0_37)">
<path fill-rule="evenodd" clip-rule="evenodd" d="M562.935 317.866C556.603 305.403 545.236 298.466 537.545 302.371C534.602 303.867 532.632 306.741 531.667 310.409C532.369 309.737 533.147 309.157 534.021 308.713C541.712 304.808 553.079 311.745 559.411 324.208C563.856 332.956 566.072 344.939 564.347 352.666C570.916 347.706 568.991 329.786 562.935 317.866" fill="#0F2A3F"/>
</g>
</g>
<path fill-rule="evenodd" clip-rule="evenodd" d="M550.708 369.962C538.503 364.495 526.044 365.79 522.881 372.854C519.718 379.918 527.047 390.075 539.252 395.542C551.458 401.009 569.588 402.255 572.751 395.192C575.915 388.128 562.912 375.43 550.708 369.962" fill="#67B8EF"/>
<g opacity="0.25">
<mask id="mask10_0_37" style="mask-type:alpha" maskUnits="userSpaceOnUse" x="522" y="366" width="52" height="31">
<path fill-rule="evenodd" clip-rule="evenodd" d="M522.157 396.138V366.578H573.233V396.138H522.157Z" fill="white"/>
</mask>
<g mask="url(#mask10_0_37)">
<path fill-rule="evenodd" clip-rule="evenodd" d="M550.706 369.962C538.5 364.495 526.04 365.79 522.877 372.853C522.138 374.503 521.992 376.326 522.327 378.214C525.698 371.405 537.964 370.209 550.001 375.6C559.824 380 570.148 389.08 572.161 396.14C572.382 395.837 572.599 395.532 572.751 395.191C575.915 388.127 562.911 375.429 550.706 369.962" fill="#34648C"/>
</g>
</g>
<path fill-rule="evenodd" clip-rule="evenodd" d="M663.376 413.037C675.561 408.698 683.132 398.703 680.285 390.712C677.439 382.721 665.253 379.761 653.068 384.1C640.882 388.44 627.649 400.452 630.495 408.443C633.342 416.434 651.191 417.376 663.376 413.037Z" fill="#34648C"/>
<g opacity="0.26">
<mask id="mask11_0_37" style="mask-type:alpha" maskUnits="userSpaceOnUse" x="632" y="383" width="49" height="33">
<path fill-rule="evenodd" clip-rule="evenodd" d="M632.355 415.594V383.388H680.885V415.594H632.355Z" fill="white"/>
</mask>
<g mask="url(#mask11_0_37)">
<path fill-rule="evenodd" clip-rule="evenodd" d="M680.285 390.708C679.065 387.28 676.119 384.786 672.201 383.388C673.63 384.634 674.726 386.132 675.352 387.888C678.198 395.882 670.629 405.881 658.445 410.222C650.203 413.159 639.384 413.666 632.355 411.22C637.935 416.589 652.789 416.814 663.378 413.042C675.561 408.701 683.131 398.701 680.285 390.708Z" fill="#0F2A3F"/>
</g>
</g>
<path fill-rule="evenodd" clip-rule="evenodd" d="M599.995 456.96C602.818 422.264 617.996 390.755 643.303 366.855C644.295 365.919 642.798 364.426 641.808 365.36C616.087 389.65 600.749 421.701 597.881 456.96C597.77 458.316 599.885 458.309 599.995 456.96" fill="#1E394C"/>
<path fill-rule="evenodd" clip-rule="evenodd" d="M592.295 452.025C593.162 409.252 579.731 368.225 553.686 334.281C552.869 333.216 551.032 334.268 551.86 335.348C577.69 369.011 591.041 409.595 590.181 452.025C590.153 453.386 592.267 453.386 592.295 452.025" fill="#1E394C"/>
<path fill-rule="evenodd" clip-rule="evenodd" d="M583.36 389.927C589.126 371.56 590.598 352.056 591.304 332.914C591.354 331.553 589.241 331.555 589.191 332.914C588.491 351.882 587.035 371.165 581.322 389.365C580.914 390.666 582.953 391.223 583.36 389.927Z" fill="#1E394C"/>
<path fill-rule="evenodd" clip-rule="evenodd" d="M550.506 386.391C560.681 392.782 572.552 397.66 583.774 401.913C585.046 402.396 585.597 400.354 584.335 399.875C573.303 395.695 561.584 390.854 551.573 384.566C550.418 383.84 549.355 385.668 550.506 386.391" fill="#1E394C"/>
<path fill-rule="evenodd" clip-rule="evenodd" d="M640.582 402.859C630.397 407.108 619.986 410.586 609.291 413.31C607.973 413.645 608.531 415.684 609.852 415.347C620.547 412.624 630.959 409.147 641.144 404.897C642.381 404.381 641.838 402.335 640.582 402.859" fill="#1E394C"/>
<path fill-rule="evenodd" clip-rule="evenodd" d="M556.859 447.131L563.282 505.292C564.085 512.563 570.229 518.066 577.543 518.066H614.616C621.931 518.066 628.075 512.563 628.878 505.292L635.301 447.131C635.651 443.967 633.173 441.2 629.99 441.2H562.169C558.986 441.2 556.51 443.967 556.859 447.131" fill="#CEE5ED"/>
<path fill-rule="evenodd" clip-rule="evenodd" d="M629.991 441.2H606.477C609.66 441.2 612.137 443.966 611.788 447.131L605.365 505.291C604.562 512.561 598.419 518.064 591.103 518.064H614.618C621.933 518.064 628.076 512.561 628.879 505.291L635.302 447.131C635.651 443.966 633.174 441.2 629.991 441.2Z" fill="#AAC6CE"/>
<path fill-rule="evenodd" clip-rule="evenodd" d="M152.529 215.534H15.9475C7.69048 215.534 0.99744 222.228 0.99744 230.483V292.657C0.99744 300.913 7.69048 307.606 15.9475 307.606H152.529C160.786 307.606 167.479 300.913 167.479 292.657V230.483C167.479 222.228 160.786 215.534 152.529 215.534Z" fill="white"/>
<g opacity="0.25">
<mask id="mask12_0_37" style="mask-type:alpha" maskUnits="userSpaceOnUse" x="134" y="215" width="34" height="93">
<path fill-rule="evenodd" clip-rule="evenodd" d="M134.857 307.606V215.534H167.479V307.606H134.857Z" fill="white"/>
</mask>
<g mask="url(#mask12_0_37)">
<path fill-rule="evenodd" clip-rule="evenodd" d="M152.529 215.534H134.857C143.114 215.534 149.808 222.228 149.808 230.483V292.657C149.808 300.913 143.114 307.606 134.857 307.606H152.529C160.786 307.606 167.479 300.913 167.479 292.657V230.483C167.479 222.228 160.786 215.534 152.529 215.534Z" fill="#34648C"/>
</g>
</g>
<path fill-rule="evenodd" clip-rule="evenodd" d="M0.99744 266.69V245.298H167.479V266.69H0.99744Z" fill="#004C84"/>
<path fill-rule="evenodd" clip-rule="evenodd" d="M16.8095 285.64V281.102H49.5995V285.64H16.8095Z" fill="#004C84"/>
<path fill-rule="evenodd" clip-rule="evenodd" d="M16.8095 295.75V291.222H32.6595V295.75H16.8095Z" fill="#004C84"/>
<path fill-rule="evenodd" clip-rule="evenodd" d="M443.332 71.121C441.385 71.121 439.808 69.543 439.808 67.597C439.808 65.65 441.385 64.072 443.332 64.072C445.279 64.072 446.856 65.65 446.856 67.597C446.856 69.543 445.279 71.121 443.332 71.121ZM429.307 71.121C427.361 71.121 425.783 69.543 425.783 67.597C425.783 65.65 427.361 64.072 429.307 64.072C431.254 64.072 432.832 65.65 432.832 67.597C432.832 69.543 431.254 71.121 429.307 71.121ZM415.107 71.121C413.161 71.121 411.583 69.543 411.583 67.597C411.583 65.65 413.161 64.072 415.107 64.072C417.054 64.072 418.632 65.65 418.632 67.597C418.632 69.543 417.054 71.121 415.107 71.121ZM457.871 63.396C455.071 47.843 440.193 37.504 424.64 40.303C409.086 43.103 398.747 57.981 401.547 73.534C404.3 88.833 418.741 99.078 434.015 96.745L439.886 103.504L441.096 94.714C453.012 89.556 460.27 76.728 457.871 63.396" fill="#004C84"/>
</g>
</g>
<defs>
<linearGradient id="paint0_linear_0_37" x1="1.0025" y1="528.377" x2="2.0025" y2="528.377" gradientUnits="userSpaceOnUse">
<stop stop-color="white"/>
<stop offset="0.13" stop-color="#F8FBFE"/>
<stop offset="0.3" stop-color="#E5F3FC"/>
<stop offset="0.52" stop-color="#C6E4F9"/>
<stop offset="0.75" stop-color="#9CD0F4"/>
<stop offset="1" stop-color="#67B8EF"/>
</linearGradient>
</defs>
</svg>
